<svg xmlns="http://www.w3.org/2000/svg" width="35" height="53" viewBox="0 0 35 53" fill="none">
  <g filter="url(#filter0_d_205_98)">
    <path d="M4.53284 2C2.02942 2 0 4.02942 0 6.53284V32.3247C0 34.4463 1.45756 36.2274 3.42593 36.7214L3.3543 36.7216C3.3543 36.7216 12.1707 39.5772 15.389 51C18.562 39.5772 27.6277 36.6762 27.6277 36.6762L27.6091 36.6763C29.4927 36.126 30.8686 34.3861 30.8686 32.3247V6.53284C30.8686 4.02942 28.8392 2 26.3358 2H4.53284Z" fill="#FF9839"/>
    <path d="M11.5587 22.7151H8.95235C8.81387 22.7151 8.68298 22.7784 8.59701 22.8869L3.67888 29.0969C3.57095 29.2332 3.55047 29.4192 3.62616 29.5757C3.70185 29.7322 3.86038 29.8316 4.03422 29.8316H26.6078C26.7727 29.8316 26.9246 29.7421 27.0044 29.5978C27.0842 29.4535 27.0794 29.2772 26.9918 29.1375L23.0972 22.9275C23.0143 22.7953 22.8692 22.7151 22.7132 22.7151H20.7604V23.1684H22.7132L26.6078 29.3783H4.03422L8.95235 23.1684H11.5587V22.7151Z" fill="white"/>
    <path d="M20.021 8.35245C19.624 8.04733 19.0549 8.12178 18.7498 8.51875L14.0562 14.6252L6.04441 13.6783C5.54719 13.6196 5.09647 13.975 5.03771 14.4722C4.97895 14.9694 5.33439 15.4202 5.83162 15.4789L12.7608 16.2978L14.2877 20.4003L13.0496 22.2677L12.5209 25.7521C12.4458 26.2471 12.7862 26.7093 13.2812 26.7844C13.7762 26.8595 14.2384 26.5191 14.3135 26.0241L14.7821 22.9358L16.2882 20.6643L18.0688 20.0581L19.6915 19.749L21.8809 20.41C22.3602 20.5547 22.8661 20.2834 23.0108 19.8041C23.1555 19.3248 22.8842 18.8189 22.4049 18.6742L19.7895 17.8846L17.6047 18.3008L17.3139 18.3998L16.0511 15.005L20.1873 9.6237C20.4924 9.22673 20.418 8.65757 20.021 8.35245Z" fill="white"/>
    <path d="M17.7914 24.5735C18.7802 24.5735 19.5819 23.7719 19.5819 22.7831C19.5819 21.7942 18.7802 20.9926 17.7914 20.9926C16.8025 20.9926 16.0009 21.7942 16.0009 22.7831C16.0009 23.7719 16.8025 24.5735 17.7914 24.5735Z" fill="white"/>
  </g>
  <defs>
    <filter id="filter0_d_205_98" x="0" y="0" width="34.8687" height="53" filterUnits="userSpaceOnUse" color-interpolation-filters="sRGB">
      <feFlood flood-opacity="0" result="BackgroundImageFix"/>
      <feColorMatrix in="SourceAlpha" type="matrix" values="0 0 0 0 0 0 0 0 0 0 0 0 0 0 0 0 0 0 127 0" result="hardAlpha"/>
      <feOffset dx="2"/>
      <feGaussianBlur stdDeviation="1"/>
      <feComposite in2="hardAlpha" operator="out"/>
      <feColorMatrix type="matrix" values="0 0 0 0 0 0 0 0 0 0 0 0 0 0 0 0 0 0 0.25 0"/>
      <feBlend mode="normal" in2="BackgroundImageFix" result="effect1_dropShadow_205_98"/>
      <feBlend mode="normal" in="SourceGraphic" in2="effect1_dropShadow_205_98" result="shape"/>
    </filter>
  </defs>
</svg>